<?xml version="1.0" encoding="utf-8"?>
<!-- Generator: Adobe Illustrator 19.0.1, SVG Export Plug-In . SVG Version: 6.00 Build 0)  -->
<svg version="1.1" id="Слой_1" xmlns="http://www.w3.org/2000/svg" xmlns:xlink="http://www.w3.org/1999/xlink" x="0px" y="0px"
	 viewBox="-269 168.9 56 168.1" width="56" style="enable-background:new -269 168.9 56 168.1;" xml:space="preserve">
<style type="text/css">
	.st0{fill:#3D599F;}
	.st1{fill:#FFFFFF;}
	.st2{fill:#3D689F;}
	.st3{fill:#EDEDED;}
	.st4{fill:#E94435;}
	.st5{fill:#F8BB15;}
	.st6{fill:#547DBE;}
	.st7{fill:#34A751;}
</style>
<polygon class="st0" points="-213,168.9 -269,168.9 -269,224.9 -213,224.9 "/>
<path class="st1" d="M-248.3,190.3h4v-1.8v-1.8v-0.3c0-1.7,0-4.4,1.3-6c1.3-1.7,3.1-2.9,6.2-2.9c5,0,7.2,0.7,7.2,0.7l-1,6
	c0,0-1.7-0.5-3.2-0.5c-1.6,0-2.9,0.6-2.9,2.1v0.6v2.1v1.8h6.4l-0.4,5.8h-5.9v20.3h-7.5v-20.3h-4v-5.8L-248.3,190.3L-248.3,190.3z"/>
<polygon class="st2" points="-269,280.9 -269,336.9 -213,336.9 -213,280.9 "/>
<path class="st1" d="M-252.3,292.4h13.6c4.5,0,8.3,2.4,8.3,7.3c0,4.1-1.3,5.7-4.1,7.5c0.2,0.2,1.8,0.7,2.3,1
	c0.8,0.5,1.3,0.9,1.9,1.6c1.6,1.8,1.9,3.4,1.9,6.1c0,6.4-5.6,9.6-11,9.6h-13L-252.3,292.4L-252.3,292.4z M-244.9,301v4.3
	c3.5,0,6.8,0.5,6.8-3.7c0-3.9-3.7-3.2-6.8-3.2V301L-244.9,301z M-244.9,319.3c3.8,0,8.6,0.7,8.6-4.1c0.1-5-4.9-4.1-8.6-4.1V319.3
	L-244.9,319.3z"/>
<rect x="-269" y="224.9" class="st3" width="56" height="56.1"/>
<g>
	<path class="st1" d="M-246.4,232.4c-4.7,1.6-8.8,5.2-11,9.8c-0.8,1.6-1.3,3.2-1.7,5c-0.9,4.3-0.3,8.8,1.7,12.7
		c1.3,2.5,3.1,4.8,5.3,6.6c2.1,1.7,4.5,2.9,7,3.6c3.2,0.9,6.7,0.9,9.9,0.1c2.9-0.7,5.7-2.1,7.9-4.2c2.3-2.2,4-5.1,4.9-8.2
		c1-3.4,1.1-7,0.5-10.5c-6.1,0-12.2,0-18.3,0c0,2.6,0,5.1,0,7.7c3.5,0,7,0,10.6,0c-0.4,2.5-1.8,4.7-3.9,6.1
		c-1.3,0.9-2.8,1.4-4.3,1.7c-1.5,0.3-3.1,0.3-4.6,0c-1.5-0.3-3-1-4.3-1.9c-2.1-1.5-3.6-3.6-4.4-6.1c-0.8-2.5-0.8-5.2,0-7.7
		c0.6-1.7,1.5-3.3,2.8-4.6c1.6-1.6,3.6-2.8,5.8-3.3c1.9-0.4,3.9-0.3,5.7,0.2c1.6,0.5,3,1.4,4.2,2.5c1.2-1.2,2.4-2.4,3.6-3.6
		c0.6-0.6,1.3-1.3,1.9-1.9c-1.8-1.7-3.9-3.1-6.2-3.9C-237.5,231-242.2,230.9-246.4,232.4z"/>
	<g>
		<path class="st4" d="M-246.4,232.4c4.2-1.5,8.9-1.4,13.1,0.1c2.3,0.9,4.4,2.2,6.2,3.9c-0.6,0.7-1.3,1.3-1.9,1.9
			c-1.2,1.2-2.4,2.4-3.6,3.6c-1.2-1.1-2.6-2-4.2-2.5c-1.8-0.6-3.8-0.6-5.7-0.2c-2.2,0.5-4.2,1.6-5.8,3.3c-1.3,1.3-2.2,2.9-2.8,4.6
			c-2.1-1.7-4.2-3.3-6.4-5C-255.2,237.7-251.1,234.1-246.4,232.4z"/>
	</g>
	<g>
		<path class="st5" d="M-259.1,247.1c0.3-1.7,0.9-3.4,1.7-5c2.1,1.7,4.2,3.3,6.4,5c-0.8,2.5-0.8,5.2,0,7.7c-2.1,1.7-4.2,3.3-6.4,5
			C-259.3,256-259.9,251.4-259.1,247.1z"/>
	</g>
	<g>
		<path class="st6" d="M-240.1,247.3c6.1,0,12.2,0,18.3,0c0.6,3.5,0.5,7.1-0.5,10.5c-0.9,3.1-2.6,6-4.9,8.2
			c-2.1-1.6-4.1-3.2-6.2-4.9c2-1.4,3.5-3.6,3.9-6.1c-3.5,0-7,0-10.6,0C-240.1,252.5-240.1,249.9-240.1,247.3z"/>
	</g>
	<g>
		<path class="st7" d="M-257.4,259.9c2.1-1.7,4.2-3.3,6.4-5c0.8,2.4,2.4,4.6,4.4,6.1c1.3,0.9,2.8,1.6,4.3,1.9c1.5,0.3,3.1,0.3,4.6,0
			c1.5-0.3,3-0.8,4.3-1.7c2.1,1.6,4.1,3.2,6.2,4.9c-2.2,2.1-5,3.5-7.9,4.2c-3.3,0.8-6.7,0.8-9.9-0.1c-2.6-0.7-5-1.9-7-3.6
			C-254.3,264.7-256.1,262.4-257.4,259.9z"/>
	</g>
</g>
</svg>
